
<svg xmlns="http://www.w3.org/2000/svg"
     class="svg-snoweb svg-theme-light"
     x="0"
     y="0"
     width="100%"
     height="100%"
     viewBox="0 0 100 100"
     preserveAspectRatio="xMidYMid meet"
>
<defs>
    <style>
        
            
            
            
        

        .svg-fill-primary {
            fill: #F5841F;
        }

        .svg-fill-secondary {
            fill: #65CDAE;
        }

        .svg-fill-tertiary {
            fill: #E5E7EB;
        }

        .svg-stroke-primary {
            stroke: #F5841F;
        }

        .svg-stroke-secondary {
            stroke: #65CDAE;
        }

        .svg-stroke-tertiary {
            stroke: #E5E7EB;
        }
    </style>
</defs>
    <path d="M37.4,20.7H29.1a8.5,8.5,0,0,0-8.4,8.4V79.3a8.5,8.5,0,0,0,8.4,8.4H70.9a8.5,8.5,0,0,0,8.4-8.4V29.1a8.5,8.5,0,0,0-8.4-8.4H62.6m-25.2,0a8.5,8.5,0,0,0,8.4,8.4h8.4a8.5,8.5,0,0,0,8.4-8.4m-25.2,0a8.5,8.5,0,0,1,8.4-8.4h8.4a8.5,8.5,0,0,1,8.4,8.4M50,50H62.6M50,66.7H62.6M37.4,50h.1m-.1,16.7h.1"
      fill="none" class="svg-stroke-primary" stroke-linecap="round" stroke-linejoin="round" stroke-width="8"/>

</svg>